<svg xmlns="http://www.w3.org/2000/svg" aria-label="Hewlett Packard Enterprise" class="gn-icon gn-logo-desktop" data-path="/content/dam/hpe/shared-publishing/homepage-v3/globalNav/vertical-logo-with-padding.svg" focusable="false" height="48" viewBox="0 0 119 48" width="119" fill="#787882"> <path d="M0 0.954346V11.5307H36.824V0.954346H0ZM34.5233 9.23008H2.30067V3.25501H34.5233V9.23008Z" ></path> <path d="M6.70195 33.6218V34.9088H1.47376V38.1431H6.22847V39.3968H1.47376V42.9178H6.70195V44.2049H0V33.6285H6.70195V33.6218ZM10.343 44.1982H8.90258V36.4093H10.2563V37.863C10.8165 36.8828 11.7101 36.2359 12.8637 36.2359C14.6776 36.2359 15.7446 37.4229 15.7446 39.1968V44.1915H14.3042V39.2301C14.3042 38.1965 13.764 37.5896 12.5636 37.5896C11.53 37.5896 10.6498 38.2832 10.3497 39.2168V44.1915L10.343 44.1982ZM21.6329 44.3649C19.6857 44.3649 18.9055 43.518 18.9055 41.9776V37.6763H17.265V36.4093H18.9055V34.3954H20.3459V36.4093H22.5599V37.6763H20.3459V41.8375C20.3459 42.7711 20.8727 43.0179 21.7663 43.0179C21.9997 43.0179 22.2398 42.9845 22.4398 42.9178H22.5599V44.1849C22.3398 44.2716 22.0331 44.3516 21.6263 44.3516L21.6329 44.3649ZM27.9614 44.3649C25.374 44.3649 23.7269 42.8445 23.7269 40.3904C23.7269 37.9364 25.254 36.2426 27.4813 36.2426C29.7086 36.2426 30.949 37.783 30.949 40.0703V40.8306H25.214C25.414 42.351 26.501 43.0646 27.9748 43.0646C28.8884 43.0646 29.5819 42.9112 30.2621 42.4244H30.4155V43.6581C29.722 44.1849 28.8217 44.3649 27.9614 44.3649ZM25.234 39.6902H29.5486C29.4952 38.2698 28.755 37.5096 27.5013 37.5096C26.2476 37.5096 25.4207 38.4232 25.234 39.6902ZM37.2508 37.8764C37.0508 37.7763 36.744 37.7097 36.4239 37.7097C35.5103 37.7097 34.7834 38.3565 34.4767 39.4035V44.1915H33.0363V36.4026H34.39V38.0764C34.8501 36.8094 35.677 36.2826 36.604 36.2826C36.9441 36.2826 37.2441 36.3359 37.3642 36.4026V37.8764H37.2441H37.2508ZM40.245 42.9178V47.0457H38.8046V36.4026H40.1583V37.743C40.6185 36.9494 41.5121 36.2359 42.7124 36.2359C45.0664 36.2359 46.3001 38.0964 46.3001 40.2104C46.3001 42.3243 45.0664 44.2716 42.7124 44.2716C41.5987 44.2716 40.7185 43.6647 40.2383 42.9178H40.245ZM44.833 40.2104C44.833 38.6366 43.9528 37.5896 42.379 37.5896C41.4454 37.5896 40.7051 38.0831 40.245 38.93V41.6041C40.7051 42.431 41.4454 42.9445 42.379 42.9445C43.9528 42.9445 44.833 41.8575 44.833 40.2171V40.2104ZM52.6886 37.8764C52.4886 37.7763 52.1818 37.7097 51.8617 37.7097C50.9481 37.7097 50.2212 38.3565 49.9145 39.4035V44.1915H48.4741V36.4026H49.8278V38.0764C50.2813 36.8094 51.1148 36.2826 52.0418 36.2826C52.3819 36.2826 52.682 36.3359 52.802 36.4026V37.8764H52.682H52.6886ZM55.1427 35.6224C54.6025 35.6224 54.109 35.1623 54.109 34.6088C54.109 34.0553 54.6025 33.6085 55.1427 33.6085C55.6828 33.6085 56.1763 34.0486 56.1763 34.6088C56.1763 35.1689 55.7028 35.6224 55.1427 35.6224ZM55.8562 44.1849H54.4158V36.3959H55.8562V44.1849ZM58.1902 42.3377H58.3236C58.9638 42.8645 59.9174 43.1312 60.811 43.1312C61.6579 43.1312 62.4048 42.8111 62.4048 42.1176C62.4048 41.4241 61.7779 41.2707 60.5442 40.8639C59.4439 40.4905 58.2102 40.1037 58.2102 38.6299C58.2102 37.1562 59.4639 36.2292 61.0711 36.2292C61.9847 36.2292 62.7982 36.416 63.4718 36.8694V38.1898H63.3184C62.7115 37.7297 61.978 37.4429 61.0844 37.4429C60.1908 37.4429 59.664 37.8497 59.664 38.4232C59.664 39.0634 60.2041 39.2368 61.4778 39.6236C62.6115 39.997 63.8652 40.4371 63.8652 41.9109C63.8652 43.518 62.5448 44.3449 60.8377 44.3449C59.804 44.3449 58.7704 44.0915 58.1969 43.6314V42.3243L58.1902 42.3377ZM69.7136 44.3516C67.1262 44.3516 65.479 42.8312 65.479 40.3771C65.479 37.9231 66.9994 36.2292 69.2334 36.2292C71.4674 36.2292 72.7011 37.7697 72.7011 40.057V40.8172H66.9661C67.1662 42.3377 68.2531 43.0512 69.7269 43.0512C70.6405 43.0512 71.334 42.8978 72.0142 42.411H72.1676V43.6447C71.4741 44.1715 70.5738 44.3516 69.7136 44.3516ZM66.9861 39.6769H71.3007C71.2473 38.2565 70.5071 37.4963 69.2534 37.4963C67.9997 37.4963 67.1728 38.4099 66.9861 39.6769ZM8.88925 18.5308V29.1072H6.58858V24.7259H2.30067V29.1072H0V18.5308H2.30067V22.712H6.58191V18.5308H8.88258H8.88925ZM15.1311 29.2939C12.2169 29.2939 10.6631 27.7201 10.6631 25.1794C10.6631 22.6386 12.2902 20.9648 14.6376 20.9648C17.1783 20.9648 18.4454 22.5586 18.4454 24.9393V25.8329H13.0304C13.1972 27.1399 14.2308 27.4734 15.2444 27.4734C16.158 27.4734 16.8716 27.3533 17.6118 26.9532H17.8652V28.6137C17.185 29.1072 16.1047 29.2939 15.1244 29.2939H15.1311ZM13.0171 24.3858H16.1847C16.118 23.1988 15.6112 22.6786 14.6776 22.6786C13.884 22.6786 13.1705 23.0521 13.0171 24.3858ZM21.1595 29.1072L19.499 21.4249V21.1515H21.6329L22.5332 25.9929L22.7533 27.5467L23.06 25.9929L24.1403 21.1515H26.561L27.628 25.9929L27.9481 27.5467L28.2015 25.9929L29.1018 21.1515H31.1357V21.4249L29.4619 29.1072H26.5144L25.5674 24.8593L25.294 23.2655L25.0206 24.8593L24.087 29.1072H21.1595ZM35.1902 29.2939C33.4964 29.2939 32.6495 28.5137 32.6495 26.7065V18.5308H34.9501V26.5531C34.9501 27.1133 35.1835 27.3 35.7304 27.3C35.8971 27.3 36.1705 27.2466 36.3372 27.1999H36.3706V29.1138C36.1171 29.2005 35.6237 29.3006 35.1835 29.3006L35.1902 29.2939ZM41.5187 29.2939C38.6045 29.2939 37.0508 27.7201 37.0508 25.1794C37.0508 22.6386 38.6779 20.9648 41.0252 20.9648C43.566 20.9648 44.833 22.5586 44.833 24.9393V25.8329H39.4181C39.5848 27.1399 40.6185 27.4734 41.6321 27.4734C42.5457 27.4734 43.2592 27.3533 43.9994 26.9532H44.2528V28.6137C43.5726 29.1072 42.4923 29.2939 41.5121 29.2939H41.5187ZM39.4048 24.3858H42.5724C42.5057 23.1988 41.9989 22.6786 41.0653 22.6786C40.2717 22.6786 39.5581 23.0521 39.4048 24.3858ZM52.6419 26.213V23.0454H49.2743V26.1063C49.2743 26.9199 49.5477 27.2933 50.3079 27.2933C50.528 27.2933 50.8148 27.2266 50.9681 27.1599H51.1882V29.0538C50.8814 29.1538 50.428 29.2872 49.7478 29.2872C47.8005 29.2872 46.9736 28.3536 46.9736 26.2063V23.0387H45.5999V21.1449H46.9736V19.2176H49.2743V21.1449H52.6419V19.2176H54.9426V21.1449H56.8565V23.0387H54.9426V26.0996C54.9426 26.9132 55.216 27.2866 55.9762 27.2866C56.1963 27.2866 56.4831 27.22 56.6364 27.1533H56.8565V29.0471C56.5497 29.1472 56.0963 29.2805 55.4161 29.2805C53.4689 29.2805 52.6419 28.3536 52.6419 26.1997V26.213ZM63.6251 25.8396V29.1072H61.3378V18.5308H65.4523C67.7863 18.5308 69.3268 19.8178 69.3268 22.2052C69.3268 24.5925 67.7863 25.8462 65.4523 25.8462H63.6251V25.8396ZM65.2656 20.478H63.6251V23.899H65.2656C66.4326 23.899 66.9928 23.2055 66.9928 22.2052C66.9928 21.1715 66.4326 20.478 65.2656 20.478ZM75.1818 27.9268C74.7084 28.8071 73.8414 29.1939 72.7811 29.1939C71.3074 29.1939 70.087 28.3469 70.087 26.7732C70.087 25.1994 71.154 24.2858 73.1679 24.2858C73.8281 24.2858 74.4883 24.3525 75.1151 24.4725V24.0124C75.1151 23.1654 74.5216 22.792 73.3346 22.792C72.4544 22.792 71.7275 22.9787 71.1206 23.2855H70.8672V21.5583C71.4741 21.2382 72.5611 20.9648 73.608 20.9648C76.0954 20.9648 77.3825 22.0985 77.3825 24.0657V29.1072H75.1818V27.9202V27.9268ZM75.1151 26.6264V25.6128C74.7217 25.4928 74.2149 25.4594 73.8081 25.4594C72.8745 25.4594 72.401 25.8129 72.401 26.5398C72.401 27.2666 72.8745 27.5534 73.568 27.5534C74.2616 27.5534 74.8884 27.2133 75.1085 26.6264H75.1151ZM79.0763 25.1527C79.0763 22.5786 80.8901 20.9715 83.2442 20.9715C84.2111 20.9715 84.9513 21.1915 85.4581 21.5316V23.5255H85.2247C84.7313 23.1521 84.1911 22.9854 83.4976 22.9854C82.3639 22.9854 81.4503 23.779 81.4503 25.1527C81.4503 26.5264 82.3639 27.2866 83.4976 27.2866C84.1911 27.2866 84.7313 27.1199 85.2247 26.7465H85.4581V28.7404C84.9513 29.0805 84.2044 29.3006 83.2442 29.3006C80.8901 29.3006 79.0763 27.7134 79.0763 25.1527ZM89.5326 25.2527V29.1138H87.232V18.5374H89.5326V24.5658L90.0728 23.7523L92.1868 21.1649H94.6208V21.4383L91.6733 24.7726L94.6208 28.8538V29.1272H92.0334L90.0661 26.213L89.526 25.2661L89.5326 25.2527ZM100.262 27.9268C99.789 28.8071 98.922 29.1939 97.8617 29.1939C96.388 29.1939 95.1676 28.3469 95.1676 26.7732C95.1676 25.1994 96.2346 24.2858 98.2485 24.2858C98.9087 24.2858 99.5689 24.3525 100.196 24.4725V24.0124C100.196 23.1654 99.6022 22.792 98.4152 22.792C97.535 22.792 96.8081 22.9787 96.2013 23.2855H95.9479V21.5583C96.5547 21.2382 97.6417 20.9648 98.6886 20.9648C101.176 20.9648 102.463 22.0985 102.463 24.0657V29.1072H100.262V27.9202V27.9268ZM100.196 26.6264V25.6128C99.809 25.4928 99.2955 25.4594 98.8954 25.4594C97.9618 25.4594 97.4883 25.8129 97.4883 26.5398C97.4883 27.2666 97.9618 27.5534 98.6553 27.5534C99.3488 27.5534 99.9757 27.2133 100.196 26.6264ZM106.764 22.7653C107.191 21.5783 108.085 21.0715 108.998 21.0715C109.305 21.0715 109.558 21.1582 109.658 21.2049V23.3855H109.418C109.185 23.2655 108.945 23.1988 108.625 23.1988C107.711 23.1988 107.051 23.6189 106.864 24.5192V29.1072H104.564V21.1515H106.764V22.7587V22.7653ZM116.314 27.9935C115.787 28.8204 114.96 29.2939 113.926 29.2939C111.759 29.2939 110.425 27.5467 110.425 25.146C110.425 22.7453 111.766 20.9648 113.926 20.9648C114.893 20.9648 115.687 21.3849 116.214 22.1185V18.5308H118.514V29.1072H116.314V27.9935ZM116.214 26.5197V23.7456C115.787 23.1388 115.213 22.8453 114.553 22.8453C113.506 22.8453 112.793 23.6589 112.793 25.146C112.793 26.6331 113.506 27.4133 114.553 27.4133C115.213 27.4133 115.787 27.1266 116.214 26.5197Z"></path></svg>